# xmcd
#
# Track frame offsets: 
#        150
#        16100
#        25441
#        44455
#        54098
#        67285
#        81205
#        92898
#        105564
#        124875
#
# Disc length: 1815 seconds
#
# Revision: 1
# Processed by: cddbd v1.5.1PL0 Copyright (c) Steve Scherf et al.
# Submitted via: ExactAudioCopy v0.95a5
#
DISCID=8107150a
DTITLE=Miranda Lambert - Miranda Lambert
DYEAR=2001
DGENRE=Country
TTITLE0=Somebody Else
TTITLE1=Texas Pride
TTITLE2=Lyin' Here
TTITLE3=Another Heartache
TTITLE4=What In The World
TTITLE5=Jack Daniels
TTITLE6=Texas As Hell
TTITLE7=Something That I Like About A Honky Tonk
TTITLE8=Last Goodbye
TTITLE9=Wichita Falls
EXTD=
EXTT0=
EXTT1=
EXTT2=
EXTT3=
EXTT4=
EXTT5=
EXTT6=
EXTT7=
EXTT8=
EXTT9=
PLAYORDER=
